<?xml version="1.0" encoding="utf-8"?>
<svg version="1.1" xmlns="http://www.w3.org/2000/svg" xmlns:xlink="http://www.w3.org/1999/xlink" height="55" width="55">
  <defs>
    <path id="path-0" opacity="1" fill-rule="evenodd" d="M0,27.5 C0,12.322265625 12.322338104248047,0 27.5,0 C42.67766189575195,0 55,12.322265625 55,27.5 C55,42.677734375 42.67766189575195,55 27.5,55 C22.327938079833984,55 17.487442016601562,53.5693359375 13.353134155273438,51.08203125 L1.000051498413086,52.998779296875 L3.741231918334961,41.3486328125 "/>
    <mask id="mask-1" maskUnits="userSpaceOnUse" maskContentUnits="userSpaceOnUse">
      <rect opacity="1" x="0" y="0" width="55" height="55" fill="Black"/>
      <use xlink:href="#path-0" fill="White"/>
    </mask>
    <path id="path-2" opacity="1" fill-rule="evenodd" d="M37.885658264160156,32.923583984375 C35.89439392089844,36.5302734375 32.354896545410156,38.942626953125 28.348548889160156,39.429931640625 C27.595870971679688,39.520751953125 25.823741912841797,39.525390625 25.028186798095703,39.429931640625 C23.637161254882812,39.272216796875 22.46050262451172,38.918701171875 21.14569854736328,38.26904296875 C19.52124786376953,37.461669921875 18.249313354492188,36.4873046875 17.148880004882812,35.2021484375 C15.491081237792969,33.267578125 14.443046569824219,30.955322265625 14.080999374389648,28.423583984375 C14.009542465209961,27.936279296875 14.00001335144043,27.224609375 14.00001335144043,21.974609375 L14.00001335144043,16.074951171875 L14.11434555053711,15.764404296875 C14.176273345947266,15.592529296875 14.300132751464844,15.33935546875 14.390644073486328,15.20068359375 C14.738401412963867,14.67529296875 15.424385070800781,14.178466796875 15.976985931396484,14.049560546875 C16.243759155273438,13.9873046875 17.101242065429688,13.982666015625 17.45376205444336,14.0400390625 C18.07781982421875,14.14501953125 18.66852569580078,14.49853515625 19.03533935546875,14.98095703125 C19.230655670166016,15.239013671875 19.40691375732422,15.70703125 19.40691375732422,15.960205078125 C19.40691375732422,16.03662109375 19.43073272705078,16.098876953125 19.464080810546875,16.098876953125 C19.49742889404297,16.098876953125 19.940460205078125,15.874267578125 20.45018768310547,15.60205078125 C21.750701904296875,14.909423828125 23.256057739257812,14.345703125 24.26598358154297,14.1689453125 C25.404525756835938,13.97314453125 27.61016082763672,13.9443359375 28.696304321289062,14.111572265625 C31.378318786621094,14.531982421875 33.68399429321289,15.716552734375 35.680023193359375,17.69921875 C36.97100830078125,18.9794921875 37.94282150268555,20.45556640625 38.628807067871094,22.165771484375 C40.01030731201172,25.619384765625 39.73876953125,29.570068359375 37.885658264160156,32.923583984375 M22.524993896484375,32.875732421875 C23.372947692871094,33.472900390625 24.39716339111328,33.94091796875 25.33563232421875,34.16552734375 C25.873939514160156,34.289794921875 27.317367553710938,34.327880859375 27.908077239990234,34.2275390625 C30.961666107177734,33.72119140625 33.548404693603516,31.170166015625 34.15816879272461,28.065185546875 C34.29155731201172,27.386962890625 34.301082611083984,26.192626953125 34.177223205566406,25.51416015625 C33.958091735839844,24.30078125 33.43407440185547,23.18310546875 32.624229431152344,22.17041015625 C31.876312255859375,21.23876953125 30.990249633789062,20.53662109375 29.908870697021484,20.020751953125 C29.337215423583984,19.748291015625 28.789379119873047,19.576416015625 28.003353118896484,19.42822265625 C27.48886489868164,19.332763671875 27.303077697753906,19.328125 24.811614990234375,19.318359375 C22.62503433227539,19.313720703125 22.067672729492188,19.29931640625 21.596054077148438,19.232421875 C20.93865203857422,19.1416015625 20.309833526611328,18.998291015625 19.842979431152344,18.8408203125 C19.552391052246094,18.740478515625 19.51904296875,18.740478515625 19.542861938476562,18.81201171875 C19.566680908203125,18.8837890625 20.18597412109375,21.119384765625 20.467037200927734,22.146484375 L20.562313079833984,22.485595703125 L20.395580291748047,22.74365234375 C18.9473876953125,25.0126953125 18.875930786132812,27.96484375 20.209793090820312,30.32470703125 C20.719520568847656,31.2275390625 21.667510986328125,32.273681640625 22.524993896484375,32.875732421875 "/>
    <path id="path-3" opacity="1" fill-rule="evenodd" d="M26.075658291555975,30.071635312034598 C24.89900217581811,29.83756050618404 23.8080942790409,28.772281287721295 23.484156562967318,27.554136889927577 C23.37935318423763,27.15286579418376 23.37935318423763,26.350323602696136 23.484156562967318,25.94427547009823 C23.727109850022504,25.022307357258278 24.43215076147677,24.181548870937906 25.351562220332674,23.71817629609088 C25.89939806369241,23.441108158553487 26.351958108206972,23.340790384617534 26.923612901278,23.374229642596184 C27.924008789152296,23.436331121699393 28.78149097875884,23.87104147542186 29.386492301425676,24.621036261514462 C29.862871295651534,25.21816586827609 30.10582458270672,25.910836212119577 30.110588372648976,26.703824329899017 C30.110588372648976,27.296176899806554 30.04865910339962,27.597130221614414 29.805705816344428,28.11305020185646 C29.453185360617297,28.872599061657247 28.933932256911113,29.402850152461575 28.162198286265227,29.78979013764311 "/>
    <path id="path-4" opacity="1" fill-rule="evenodd" d="M226.4999999999884,24.499988336269876 L238.05835993769773,33.49998833626978 L249.6428572255004,24.499988336269876 "/>
  </defs>
  <g opacity="1">
    <g>
      <use xlink:href="#path-0" fill="rgb(242,242,242)" fill-opacity="1"/>
    </g>
    <g mask="url(#mask-1)">
      <g opacity="1">
        <g transform="translate(26.75001621246338, 26.749755859375) scale(-1, 1) translate(-26.75001621246338, -26.749755859375) translate(26.75001621246338, 26.749755859375) rotate(-180.00006436155007) translate(-26.75001621246338, -26.749755859375)" opacity="1">
          <g opacity="1">
            <use xlink:href="#path-2" fill="rgb(243,202,62)" fill-opacity="1"/>
          </g>
          <g transform="translate(26.758071200784514, 26.754127803680827) scale(-1, 1) translate(-26.758071200784514, -26.754127803680827)" opacity="1">
            <use xlink:href="#path-3" fill="rgb(243,202,62)" fill-opacity="1"/>
          </g>
        </g>
      </g>
      <g opacity="1">
        <g transform="translate(238.0714286127444, 28.99998833626983) scale(1, -1) translate(-238.0714286127444, -28.99998833626983)" opacity="1">
          <use xlink:href="#path-4" fill-opacity="0" stroke="rgb(243,202,62)" stroke-opacity="1" stroke-width="2"/>
        </g>
      </g>
    </g>
  </g>
</svg>