<?xml version="1.0" encoding="utf-8"?>
<svg version="1.1" xmlns="http://www.w3.org/2000/svg" xmlns:xlink="http://www.w3.org/1999/xlink" height="200" width="136.81375877807227">
  <defs>
    <rect id="rect-0" opacity="1" x="0" y="0" width="136.8137587780723" height="200"/>
    <path id="path-1" opacity="1" fill-rule="evenodd" d="M122.921875,67.92982482910156 L123.13238525390625,12.28070068359375 L48.55133056640625,12.28070068359375 C70.30120849609375,21.263153076171875 97.4534912109375,41.05262756347656 122.921875,67.92982482910156 L122.921875,67.92982482910156ZM12.278152465820312,123.15789794921875 L59.496429443359375,123.15789794921875 C37.044952392578125,98.877197265625 20.557144165039062,73.75439453125 12.278152465820312,53.052635192871094 L12.278152465820312,123.15789794921875 L12.278152465820312,123.15789794921875Z"/>
    <path id="path-2" opacity="1" fill-rule="evenodd" d="M123.1323829002648,72.9122807017551 L123.1323829002648,82.7368421052638 C120.6065904305158,79.78947368421119 118.01063705882929,76.91228070175507 115.20420098133037,74.03508771929896 C84.61404773659218,42.315789473685165 49.53359676785571,26.66666666666774 36.83447351717311,38.94736842105361 C24.06518936455304,51.228070175439484 38.51833516367246,86.87719298245673 69.10848840841066,118.52631578947404 L73.73910793628389,123.15789473684242 L64.40770797859997,123.15789473684242 C27.994199873051514,86.4561403508778 10.734617996433172,44.561403508772855 25.819211912989854,29.543859649123853 C34.8499457798094,20.55326684210638 53.461418049066346,23.25812378947478 74.75871387679548,34.752329543860654 C89.03560987737583,42.457607368422 104.51947475306925,54.11268736842191 119.13321148982887,68.84210526315863 C120.53642952857831,70.17543859649196 121.8694866653903,71.50877192982529 123.1323829002648,72.9122807017551Z"/>
    <path id="path-3" opacity="1" fill-rule="evenodd" d="M123.13238290026513,87.64912280701904 L123.13238290026513,123.15789473684339 L107.06553635658373,123.15789473684339 L92.33174694971433,76.28070175438754 L79.63262369903163,123.15789473684339 L78.0890838564072,123.15789473684339 C75.77377409247059,121.05263157894866 73.45846432853396,118.80701754386095 71.21331546653482,116.49122807017677 C46.306195278731764,90.66666666666815 35.501416380360865,60.77192982456306 47.07796520004398,49.614035087721035 C58.65451401972709,38.456140350879 88.19225373540338,50.31578947368594 113.09937392320641,76.07017543859806 C116.74774082395503,79.85964912280858 120.11546411695375,83.71929824561556 123.13238290026513,87.64912280701904Z"/>
    <path id="path-4" opacity="1" fill-rule="evenodd" d="M22.942626953125,136.84210205078125 L13.681381225585938,136.84210205078125 L13.681381225585938,185.96490478515625 L22.942626953125,185.96490478515625 L22.942626953125,136.84210205078125 L22.942626953125,136.84210205078125ZM56.40936279296875,136.84210205078125 L34.5191650390625,136.84210205078125 L34.5191650390625,185.82455444335938 L56.40936279296875,185.82455444335938 C60.47869873046875,185.82455444335938 63.98675537109375,185.19297790527344 66.93350219726562,183.92982482910156 C69.8802490234375,182.66665649414062 72.2657470703125,180.9122772216797 74.16006469726562,178.66665649414062 C76.05441284179688,176.49122619628906 77.4576416015625,173.82455444335938 78.36972045898438,170.877197265625 C79.28182983398438,167.92982482910156 79.77294921875,164.70175170898438 79.77294921875,161.3333282470703 C79.77294921875,157.96490478515625 79.28182983398438,154.73684692382812 78.36972045898438,151.7894744873047 C77.4576416015625,148.84210205078125 75.9842529296875,146.24560546875 74.16006469726562,144 C72.33587646484375,141.75437927246094 69.8802490234375,140 66.93350219726562,138.73683166503906 C63.98675537109375,137.4736785888672 60.47869873046875,136.84210205078125 56.40936279296875,136.84210205078125 L56.40936279296875,136.84210205078125ZM124.53561401367188,136.84210205078125 L81.8076171875,136.84210205078125 L81.8076171875,144.28070068359375 L98.50592041015625,144.28070068359375 L98.50592041015625,185.96490478515625 L107.76715087890625,185.96490478515625 L107.76715087890625,144.28070068359375 L124.53561401367188,144.28070068359375 L124.53561401367188,136.84210205078125 L124.53561401367188,136.84210205078125ZM43.7803955078125,178.94737243652344 L52.90130615234375,178.94737243652344 C56.479522705078125,178.94737243652344 59.42626953125,178.5263214111328 61.7415771484375,177.61404418945312 C64.056884765625,176.70175170898438 65.8109130859375,175.50877380371094 67.14398193359375,173.89474487304688 C68.47702026367188,172.28070068359375 69.3189697265625,170.45614624023438 69.81008911132812,168.3508758544922 C70.30120849609375,166.24562072753906 70.51168823242188,163.92982482910156 70.51168823242188,161.40350341796875 C70.51168823242188,158.877197265625 70.30120849609375,156.63157653808594 69.81008911132812,154.45614624023438 C69.3189697265625,152.28070068359375 68.47702026367188,150.45614624023438 67.14398193359375,148.9122772216797 C65.8109130859375,147.36842346191406 64.056884765625,146.1052703857422 61.7415771484375,145.19297790527344 C59.42626953125,144.28070068359375 56.479522705078125,143.85964965820312 52.90130615234375,143.85964965820312 L43.7803955078125,143.85964965820312 L43.7803955078125,178.94737243652344 L43.7803955078125,178.94737243652344Z"/>
  </defs>
  <g opacity="1">
    <g>
      <use xlink:href="#rect-0" fill="rgb(51,51,51)" fill-opacity="1"/>
    </g>
    <g>
      <use xlink:href="#path-1" fill="rgb(255,204,0)" fill-opacity="1"/>
    </g>
    <g>
      <use xlink:href="#path-2" fill="rgb(255,204,0)" fill-opacity="1"/>
    </g>
    <g>
      <use xlink:href="#path-3" fill="rgb(255,204,0)" fill-opacity="1"/>
    </g>
    <g>
      <use xlink:href="#path-4" fill="rgb(255,255,255)" fill-opacity="1"/>
    </g>
  </g>
</svg>